HIERARCHY
ROOT Hips
{
	OFFSET -0.001795 -0.223333 0.028219
	CHANNELS 6 Xposition Yposition Zposition Zrotation Yrotation Xrotation 
	JOINT LeftUpLeg
	{
		OFFSET 0.069520 -0.091406 -0.006815
		CHANNELS 3 Zrotation Yrotation Xrotation
		JOINT LeftLeg
		{
			OFFSET 0.034277 -0.375199 -0.004496
			CHANNELS 3 Zrotation Yrotation Xrotation
			JOINT LeftFoot
			{
				OFFSET -0.013596 -0.397961 -0.043693
				CHANNELS 3 Zrotation Yrotation Xrotation
				JOINT LeftToe
				{
					OFFSET 0.026358 -0.055791 0.119288
					CHANNELS 3 Zrotation Yrotation Xrotation
					End Site
					{
						OFFSET 0.000000 0.000000 0.000000
					}
				}
			}
		}
	}
	JOINT RightUpLeg
	{
		OFFSET -0.067670 -0.090522 -0.004320
		CHANNELS 3 Zrotation Yrotation Xrotation
		JOINT RightLeg
		{
			OFFSET -0.038290 -0.382569 -0.008850
			CHANNELS 3 Zrotation Yrotation Xrotation
			JOINT RightFoot
			{
				OFFSET 0.015774 -0.398415 -0.042312
				CHANNELS 3 Zrotation Yrotation Xrotation
				JOINT RightToe
				{
					OFFSET -0.025372 -0.048144 0.123348
					CHANNELS 3 Zrotation Yrotation Xrotation
					End Site
					{
						OFFSET 0.000000 0.000000 0.000000
					}
				}
			}
		}
	}
	JOINT Spine
	{
		OFFSET -0.002533 0.108963 -0.026696
		CHANNELS 3 Zrotation Yrotation Xrotation
		JOINT Spine1
		{
			OFFSET 0.005487 0.135180 0.001092
			CHANNELS 3 Zrotation Yrotation Xrotation
			JOINT Spine2
			{
				OFFSET 0.001457 0.052922 0.025425
				CHANNELS 3 Zrotation Yrotation Xrotation
				JOINT Neck
				{
					OFFSET -0.002778 0.213870 -0.042857
					CHANNELS 3 Zrotation Yrotation Xrotation
					JOINT Head
					{
						OFFSET 0.005152 0.064970 0.051349
						CHANNELS 3 Zrotation Yrotation Xrotation
						End Site
						{
							OFFSET 0.000000 0.000000 0.000000
						}
					}
				}
				JOINT LeftShoulder
				{
					OFFSET 0.078845 0.121749 -0.034090
					CHANNELS 3 Zrotation Yrotation Xrotation
					JOINT LeftArm
					{
						OFFSET 0.090977 0.030469 -0.008868
						CHANNELS 3 Zrotation Yrotation Xrotation
						JOINT LeftForeArm
						{
							OFFSET 0.259612 -0.012772 -0.027456
							CHANNELS 3 Zrotation Yrotation Xrotation
							JOINT LeftHand
							{
								OFFSET 0.249234 0.008986 -0.001171
								CHANNELS 3 Zrotation Yrotation Xrotation
								End Site
								{
									OFFSET 0.000000 0.000000 0.000000
								}
							}
						}
					}
				}
				JOINT RightShoulder
				{
					OFFSET -0.081759 0.118833 -0.038615
					CHANNELS 3 Zrotation Yrotation Xrotation
					JOINT RightArm
					{
						OFFSET -0.096012 0.032551 -0.009143
						CHANNELS 3 Zrotation Yrotation Xrotation
						JOINT RightForeArm
						{
							OFFSET -0.253742 -0.013329 -0.021401
							CHANNELS 3 Zrotation Yrotation Xrotation
							JOINT RightHand
							{
								OFFSET -0.255298 0.007772 -0.005559
								CHANNELS 3 Zrotation Yrotation Xrotation
								End Site
								{
									OFFSET 0.000000 0.000000 0.000000
								}
							}
						}
					}
				}
			}
		}
	}
}
MOTION
Frames: 11
Frame Time: 0.050000
0.035418 0.410311 -0.198080 1.472499 -10.815789 -4.516522 10.218711 6.919159 -82.279715 -18.336182 41.876315 128.627284 18.173959 50.409674 -23.149561 0.000000 0.000000 0.000000 -36.935975 -9.518223 -66.800065 24.206949 -47.929850 126.899776 -12.342188 -38.438676 -23.267537 0.000000 0.000000 0.000000 6.811663 -4.017755 87.693810 -13.436141 2.097814 -39.099776 -4.735361 12.144895 29.829469 14.490147 -2.055607 -43.583520 0.000000 0.000000 0.000000 -5.471239 -29.482920 9.866019 -35.735577 -39.720325 4.523522 52.859449 -66.758572 -35.255237 0.000000 0.000000 0.000000 5.434040 10.791981 4.818619 46.067452 46.571150 13.135460 -97.844001 49.573494 -43.312887 0.000000 0.000000 0.000000 
0.034722 0.409590 -0.197443 1.319183 -11.186456 -4.396576 10.965184 7.861472 -82.399389 -18.534295 42.957787 129.305253 19.576301 51.048388 -19.135452 0.000000 0.000000 0.000000 -36.474654 -9.211570 -67.625239 22.472930 -46.440686 129.149619 -12.031213 -36.072593 -21.996734 0.000000 0.000000 0.000000 7.158719 -4.150441 87.940741 -13.431503 2.032435 -39.530155 -4.508960 11.702198 30.120977 15.081008 -2.215050 -44.700837 0.000000 0.000000 0.000000 -5.674769 -29.477638 9.940511 -37.556184 -39.580653 4.897757 51.294938 -65.272759 -32.914704 0.000000 0.000000 0.000000 5.463564 10.612827 4.728371 46.040148 48.052173 13.786108 -95.777834 49.731547 -42.285241 0.000000 0.000000 0.000000 
0.035049 0.409124 -0.196589 1.096615 -11.291774 -4.017743 11.408312 8.311503 -82.317870 -19.253170 44.315535 128.947933 21.203412 52.391442 -15.908920 0.000000 0.000000 0.000000 -36.983146 -9.549580 -68.163316 21.669520 -45.892275 130.187250 -11.361708 -33.532545 -22.474290 0.000000 0.000000 0.000000 7.852412 -4.780187 88.090652 -13.282113 2.012699 -39.499825 -4.895716 11.137688 29.391673 15.535690 -2.369651 -45.144159 0.000000 0.000000 0.000000 -6.021868 -29.368065 10.001687 -39.334915 -39.385925 5.339375 48.202533 -64.525149 -30.059206 0.000000 0.000000 0.000000 5.864785 10.525439 4.751926 46.157793 48.471146 13.976768 -94.800797 50.667849 -42.818464 0.000000 0.000000 0.000000 
0.036220 0.407470 -0.195734 1.121017 -11.313635 -3.699483 11.917303 8.769429 -82.182179 -19.939349 46.176622 129.164703 23.025423 53.624834 -12.395453 0.000000 0.000000 0.000000 -37.244518 -9.803288 -68.790876 20.490069 -45.044695 131.847464 -10.652077 -31.043051 -23.522198 0.000000 0.000000 0.000000 8.289817 -5.218993 88.375201 -13.212288 1.944895 -39.967390 -4.650775 10.682942 29.408559 15.610097 -2.253217 -46.379435 0.000000 0.000000 0.000000 -6.280966 -28.799860 9.879916 -41.944552 -39.514002 5.988375 46.873739 -64.905612 -29.034554 0.000000 0.000000 0.000000 6.018215 9.962042 4.532206 45.502720 49.196138 13.983630 -93.889001 50.324912 -42.085830 0.000000 0.000000 0.000000 
0.037870 0.404765 -0.194853 0.909402 -11.470304 -2.893048 12.105922 9.030112 -82.112861 -20.450032 47.780361 129.466149 24.825060 55.223581 -9.809517 0.000000 0.000000 0.000000 -38.381848 -10.382931 -68.856251 19.198161 -43.869762 133.487657 -9.848263 -27.599032 -24.233126 0.000000 0.000000 0.000000 9.312350 -6.102395 88.175293 -13.082487 1.939247 -39.805621 -4.807703 10.241025 29.067630 15.534202 -2.237241 -46.420264 0.000000 0.000000 0.000000 -7.385208 -28.584094 10.013960 -42.979781 -39.773551 6.431397 47.076801 -65.057338 -29.031543 0.000000 0.000000 0.000000 5.660566 9.857201 4.413890 44.448799 49.150648 13.502396 -90.729021 48.645572 -38.562033 0.000000 0.000000 0.000000 
0.039542 0.401551 -0.194221 0.928849 -11.762582 -2.193782 12.258108 9.325625 -81.858127 -20.358591 48.633613 130.320659 25.246653 55.351610 -8.900810 0.000000 0.000000 0.000000 -38.854428 -10.682353 -69.807172 18.387646 -43.399562 134.679141 -9.472800 -25.819238 -24.983110 0.000000 0.000000 0.000000 9.819861 -6.390210 88.015904 -12.591993 1.899532 -39.554865 -4.979931 10.247823 28.352993 15.105309 -1.861762 -47.414510 0.000000 0.000000 0.000000 -7.633420 -28.487015 10.011271 -45.771024 -40.358272 7.407213 46.752557 -64.394138 -28.313455 0.000000 0.000000 0.000000 5.512746 10.204170 4.543508 43.790482 49.416994 13.441046 -84.482698 45.608634 -32.154236 0.000000 0.000000 0.000000 
0.040884 0.399626 -0.194182 0.935796 -12.005646 -1.898521 11.889534 9.163862 -81.919060 -19.452486 48.485838 132.042591 24.339748 54.209138 -9.534679 0.000000 0.000000 0.000000 -39.129895 -10.791219 -70.219332 18.296703 -43.688661 134.975615 -9.469571 -25.364592 -24.083413 0.000000 0.000000 0.000000 10.412379 -6.833632 88.301377 -12.327257 1.875318 -39.470699 -5.039390 9.966261 27.802865 14.749897 -1.667598 -47.760101 0.000000 0.000000 0.000000 -8.224881 -29.010519 10.325405 -45.609354 -42.431914 8.328585 48.525655 -61.099966 -27.690604 0.000000 0.000000 0.000000 4.870209 11.266656 4.840269 42.439755 49.286621 12.899310 -76.895868 40.854952 -24.693294 0.000000 0.000000 0.000000 
0.041690 0.399288 -0.194876 0.732719 -11.902020 -0.980642 11.501293 8.812422 -82.337789 -18.146156 47.575370 134.109594 24.061982 52.572904 -8.104661 0.000000 0.000000 0.000000 -38.879933 -10.888724 -71.107435 18.385259 -43.965557 134.743622 -9.560094 -25.434982 -23.842030 0.000000 0.000000 0.000000 10.663432 -7.171386 88.422725 -11.458246 1.798375 -39.311486 -5.175502 10.523854 27.238246 14.964018 -1.478257 -48.780763 0.000000 0.000000 0.000000 -7.935789 -29.944264 10.584697 -45.637876 -44.956700 9.393923 49.372857 -57.106280 -26.232862 0.000000 0.000000 0.000000 3.861348 11.548063 4.821064 42.479706 50.180721 13.596806 -70.801755 35.669409 -18.416107 0.000000 0.000000 0.000000 
0.041965 0.400672 -0.195998 0.384231 -12.482317 -0.467847 11.213220 8.887670 -81.979995 -15.975611 44.387859 136.391419 21.235960 48.958380 -10.927442 0.000000 0.000000 0.000000 -38.415246 -10.409512 -71.854887 19.708062 -45.681562 133.078758 -10.006877 -26.975536 -23.186088 0.000000 0.000000 0.000000 11.080604 -7.204943 88.288012 -11.988210 1.820917 -39.346881 -4.804918 10.499651 27.218787 15.232397 -1.590608 -48.752988 0.000000 0.000000 0.000000 -7.951883 -31.090798 11.066879 -43.768400 -47.762426 9.950514 47.577766 -52.290573 -22.696023 0.000000 0.000000 0.000000 3.153509 12.369338 5.006759 40.917959 51.653943 13.641288 -65.370551 31.102589 -13.982683 0.000000 0.000000 0.000000 
0.041939 0.401726 -0.196862 -0.149613 -13.075120 0.125106 11.394297 9.432285 -81.844295 -13.727711 40.562837 138.992808 18.555506 44.860502 -13.808688 0.000000 0.000000 0.000000 -38.064316 -10.102105 -73.149549 20.923959 -47.344038 131.627886 -10.543567 -28.454600 -21.976222 0.000000 0.000000 0.000000 10.920085 -6.692488 88.273702 -11.217832 1.698834 -39.556532 -4.427074 11.474727 27.311968 16.011107 -1.748763 -48.847899 0.000000 0.000000 0.000000 -6.821615 -32.283497 11.239296 -42.242560 -49.398688 9.908814 45.797970 -47.765525 -19.810168 0.000000 0.000000 0.000000 2.476929 12.647522 5.031192 39.152647 52.793516 13.580684 -61.936652 27.498223 -11.002384 0.000000 0.000000 0.000000 
0.041614 0.402360 -0.197052 -0.719026 -13.718992 0.396609 11.268240 9.605175 -81.091128 -12.018177 36.826637 140.604060 16.632658 41.716228 -16.723417 0.000000 0.000000 0.000000 -38.228548 -9.870571 -73.436893 22.513913 -49.208339 129.812397 -11.044340 -29.816564 -20.872226 0.000000 0.000000 0.000000 11.735746 -7.089706 88.208473 -12.079360 1.737780 -39.719626 -4.650558 10.677525 27.408396 16.698175 -2.129494 -48.785435 0.000000 0.000000 0.000000 -6.695808 -32.776706 11.520845 -40.666234 -49.937630 9.610029 42.165972 -44.391306 -16.475643 0.000000 0.000000 0.000000 1.778611 13.475352 5.159842 36.574322 54.620881 13.051168 -59.020247 25.284995 -9.521344 0.000000 0.000000 0.000000 
